<svg role="img" viewBox="0 0 24 24" xmlns="http://www.w3.org/2000/svg" id="Tabelog--Streamline-Simple-Icons" height="24" width="24">
  <desc>
    Tabelog Streamline Icon: https://streamlinehq.com
  </desc>
  <title>Tabelog</title>
  <path d="M24 14.4915a0.183 0.183 0 0 0 -0.1398 -0.181l-2.2517 -0.5431a0.1817 0.1817 0 0 0 -0.163 0.0401 0.183 0.183 0 0 0 -0.0615 0.1505c-0.2094 -0.0678 -0.4082 -0.1495 -0.5707 -0.2458 -0.4315 -0.2573 -0.9912 -0.7497 -1.207 -1.6315 -0.148 -0.6047 -0.5402 -1.6616 -0.7995 -2.3615l-0.1867 -0.5094c-0.0513 -0.1451 -0.1369 -0.312 -0.2486 -0.4861l0.905 -0.4252a0.2412 0.2412 0 0 0 0.1127 -0.3241l-0.3468 -0.7082a0.2413 0.2413 0 0 0 -0.325 -0.1098l-1.1905 0.6057c-0.1727 -0.1466 -0.356 -0.2782 -0.5447 -0.3832 -0.2525 -0.1402 -0.65 -0.3415 -1.0637 -0.5456l1.9654 -1.1406a0.2403 0.2403 0 0 0 0.0846 -0.3323l-0.4063 -0.6757a0.2417 0.2417 0 0 0 -0.3338 -0.0813l-2.5878 1.6122c-0.2027 -0.0962 -0.3415 -0.162 -0.3725 -0.1765 -0.0876 -0.0562 -0.5863 -0.3386 -1.38 -0.0305 -0.759 0.294 -1.4478 0.5084 -1.4546 0.5108 -0.058 0.0184 -0.562 0.1838 -0.7623 0.4494 -0.2075 0.2757 -0.7672 0.9064 -0.9568 1.0114 -0.2235 0.1234 -0.5035 0.369 -0.5577 0.6535a0.5921 0.5921 0 0 0 -0.0068 0.0489 0.451 0.451 0 0 0 0.1045 0.338c0.1267 0.1534 0.3086 0.2255 0.4658 0.2603L0.1175 15.2635a0.246 0.246 0 0 0 -0.0823 0.3367l0.0755 0.1248a0.2473 0.2473 0 0 0 0.3357 0.0856l8.882 -5.153c-0.0092 0.1644 -0.0039 0.5785 0.2506 0.7981 0.0846 0.073 0.2249 0.1451 0.4348 0.1292l-9.265 4.7123a0.2459 0.2459 0 0 0 -0.1108 0.3285l0.0638 0.131a0.247 0.247 0 0 0 0.327 0.1142l9.087 -4.2693c-0.0938 0.2922 -0.1649 0.5665 -0.1842 0.775 -0.0078 0.0831 -0.0078 0.1552 0.0024 0.2147 0.0643 0.3802 0.2336 0.6414 0.4765 0.7343 0.119 0.046 0.298 0.0605 0.5233 -0.046 0.0494 0.192 0.1427 0.4349 0.3154 0.5742 0.1089 0.0876 0.239 0.1258 0.375 0.1103 0.293 -0.0329 0.6476 -0.2931 0.8827 -0.6477 0.1596 -0.2419 0.2535 -0.503 0.2786 -0.7672a1.535 1.535 0 0 0 -0.0005 -0.2752c0.238 0.0827 0.582 0.2554 0.7672 0.5993 0.359 0.6666 1.6751 2.5008 2.4882 2.88l0.4683 0.2322c0.6975 0.3546 1.6523 0.8398 2.997 1.0908 0.0064 0.0024 0.0136 0.0053 0.0204 0.0077a0.1873 0.1873 0 0 0 -0.0232 0.0706 0.1836 0.1836 0 0 0 0.1054 0.1814l2.3393 1.0797a0.1805 0.1805 0 0 0 0.1282 0.0092c0.074 -0.0213 1.8468 -0.5911 1.9242 -4.9334zm-7.1953 -6.7933a2.857 2.857 0 0 1 0.3662 0.2448l-2.6324 1.3394a3.6848 3.6848 0 0 0 -0.3376 -0.1906l-0.3827 -0.1814c-0.2288 -0.1079 -0.5248 -0.2462 -0.8116 -0.3875l2.5317 -1.4685c0.4862 0.2375 0.979 0.4837 1.2664 0.6438zM9.5166 8.7014c0.0237 -0.1238 0.1852 -0.2965 0.3753 -0.402 0.297 -0.164 0.9355 -0.9301 1.072 -1.111 0.0981 -0.1302 0.4077 -0.2656 0.58 -0.3207 0.0057 -0.0015 0.7057 -0.2196 1.4767 -0.5186 0.6632 -0.2568 1.0434 -0.0082 1.0593 0.0024a0.1997 0.1997 0 0 0 0.0262 0.015c0.0039 0.0015 0.0653 0.0305 0.1664 0.0784l-2.3703 1.4768c-0.4092 -0.1529 -0.8948 0.0038 -1.1657 0.2844 -0.1079 0.1113 -0.1848 0.2641 -0.2278 0.4363 -0.1582 0.3159 -0.4247 0.3096 -0.4572 0.3072 -0.0024 0 -0.0048 0.001 -0.0082 0.0005 -0.0068 -0.0005 -0.0145 -0.002 -0.0217 -0.0015 -0.0958 0.0024 -0.3686 -0.0208 -0.4852 -0.1616 -0.0203 -0.0246 -0.0266 -0.0498 -0.0198 -0.0856zm0.3013 2.4776c-0.1287 -0.1108 -0.132 -0.4111 -0.1224 -0.5287 0.0039 -0.0111 0.0387 -0.1127 0.0895 -0.2578l0.9766 -0.567c0.0755 0.104 0.1645 0.2008 0.2666 0.2893 -0.0416 0.3691 -0.166 0.6308 -0.1674 0.6337 -0.0005 0.0005 0 0.0005 -0.0005 0.0005v0.0005c-0.0015 0.0029 -0.1557 0.2897 -0.774 0.4537 -0.1837 0.0489 -0.2476 -0.0058 -0.2684 -0.0242zm1.3718 -0.2723 0.0005 -0.001c0.016 -0.0324 0.1118 -0.2418 0.1703 -0.5495 0.1615 0.105 0.3178 0.2066 0.4668 0.3048l-0.685 0.3487c0.0165 -0.0348 0.0324 -0.0701 0.0474 -0.103zm-0.249 2.9424c-0.1597 0.1243 -0.3014 0.1732 -0.3996 0.1355 -0.1137 -0.044 -0.2061 -0.2133 -0.2467 -0.4542 -0.0063 -0.0358 -0.0063 -0.0818 -0.001 -0.136 0.0213 -0.2268 0.1345 -0.6003 0.283 -1.0095l1.1478 -0.5393c-0.1044 0.2472 -0.1964 0.55 -0.2094 0.8658 -0.0208 0.505 -0.4992 1.0545 -0.5742 1.1377zm8.6792 3.8809a0.2123 0.2123 0 0 0 -0.0304 -0.0082c-1.3027 -0.2404 -2.2358 -0.715 -2.9164 -1.0608l-0.4793 -0.2375c-0.6985 -0.326 -1.9707 -2.0723 -2.3209 -2.7219 -0.3076 -0.5718 -0.9162 -0.7715 -1.1745 -0.8325 -0.0507 -0.1717 -0.1557 -0.4914 -0.2824 -0.6593a0.1833 0.1833 0 0 0 -0.256 -0.0358 0.1833 0.1833 0 0 0 -0.0362 0.2559c0.0943 0.1248 0.2046 0.46 0.2525 0.6419 0 0.001 0.0005 0.0015 0.001 0.0019 0.0004 0.0015 0.0004 0.0029 0.001 0.0044 0.1383 0.4624 -0.0514 0.849 -0.1762 1.0376 -0.1959 0.2955 -0.459 0.4682 -0.6186 0.4861 -0.0402 0.0044 -0.0711 -0.0048 -0.105 -0.032 -0.117 -0.0938 -0.1925 -0.3453 -0.223 -0.5252 0.1625 -0.1892 0.6008 -0.7503 0.625 -1.3172 0.0203 -0.49 0.2776 -0.9708 0.3908 -1.1377l0.5544 -0.2607c0.3937 0.2699 0.6554 0.4605 0.727 0.533l0.1214 0.1152c0.2588 0.2399 0.7981 0.7396 0.863 1.2571 0.0914 0.728 0.951 2.4022 1.9353 2.8709a0.182 0.182 0 0 0 0.2433 -0.0866 0.1822 0.1822 0 0 0 -0.0861 -0.2433c-0.8634 -0.4112 -1.6495 -1.9445 -1.7303 -2.5864 -0.0812 -0.6492 -0.664 -1.189 -0.977 -1.4792l-0.1103 -0.105c-0.2516 -0.253 -1.8706 -1.3075 -2.3615 -1.6248 -0.4746 -0.3072 -0.5853 -0.7004 -0.609 -0.908 -0.0281 -0.2433 0.0338 -0.4832 0.1576 -0.6109 0.1858 -0.192 0.6003 -0.3454 0.8964 -0.133 0.338 0.2419 1.1986 0.6458 1.7684 0.9133l0.3759 0.1784c0.3502 0.1732 0.6491 0.4136 0.652 0.416 0.0416 0.0358 1.1218 0.9607 1.5054 1.2142 0.5156 0.341 0.951 0.1257 1.1091 -0.0353a0.182 0.182 0 0 0 -0.0019 -0.256 0.1832 0.1832 0 0 0 -0.2573 -0.0014c-0.0261 0.0256 -0.2665 0.2399 -0.6482 -0.0121 -0.1828 -0.121 -0.55 -0.4175 -0.8721 -0.6845l2.5119 -1.1802c0.1069 0.162 0.1896 0.3178 0.2365 0.4513l0.1892 0.5151c0.2563 0.6917 0.6443 1.737 0.787 2.3209 0.2452 1.0052 0.8832 1.5653 1.3747 1.8584 0.2225 0.1326 0.4977 0.237 0.7768 0.3202 0.018 0.848 -0.0875 2.866 -1.4245 3.5186a31.0668 31.0668 0 0 0 -0.3584 -0.135zm2.4065 1.3205c-0.1137 -0.0527 -1.3631 -0.6293 -1.8807 -0.8682 1.1368 -0.5549 1.498 -1.8933 1.5958 -2.9265a7.769 7.769 0 0 0 0.0242 -1.0744c0.3584 0.0866 1.6393 0.3952 1.8638 0.4494 -0.0087 0.313 -0.0247 0.608 -0.0504 0.879 -0.2578 2.7397 -1.2992 3.4154 -1.5527 3.5407z" fill="#ff9606" stroke-width="1"></path>
</svg>